<svg viewBox="0 0 1000 752" xmlns="http://www.w3.org/2000/svg" font-family="'Courier New', Consolas, monospace">
  <defs>
    <radialGradient id="forestBg" cx="50%" cy="30%" r="80%">
      <stop offset="0%" stop-color="#0f1b12"/>
      <stop offset="100%" stop-color="#050a06"/>
    </radialGradient>
    <linearGradient id="woodPanel" x1="0" y1="0" x2="0" y2="1">
      <stop offset="0%" stop-color="#4a2f18"/>
      <stop offset="100%" stop-color="#2e1c0d"/>
    </linearGradient>
    <filter id="glow"><feGaussianBlur stdDeviation="4"/></filter>
  </defs>

  <rect x="0" y="0" width="1000" height="752" fill="url(#forestBg)"/>

  <circle cx="70" cy="712" r="3" fill="#5eead4" opacity="0.7" filter="url(#glow)"/>
  <circle cx="920" cy="60" r="4" fill="#a3e635" opacity="0.6" filter="url(#glow)"/>
  <circle cx="960" cy="632" r="3" fill="#5eead4" opacity="0.5" filter="url(#glow)"/>
  <circle cx="30" cy="300" r="2.5" fill="#a3e635" opacity="0.6" filter="url(#glow)"/>
  <circle cx="500" cy="15" r="2.5" fill="#5eead4" opacity="0.5" filter="url(#glow)"/>

  <rect x="15" y="15" width="970" height="722" rx="14" fill="url(#woodPanel)" stroke="#ffd166" stroke-width="3" filter="url(#glow)"/>
  <rect x="15" y="15" width="970" height="722" rx="14" fill="none" stroke="#c99a4b" stroke-width="3"/>
  <rect x="26" y="26" width="948" height="700" rx="10" fill="none" stroke="#8a5a2b" stroke-width="1.5"/>

  <circle cx="26" cy="26" r="7" fill="#ffd166"/>
  <circle cx="974" cy="26" r="7" fill="#ffd166"/>
  <circle cx="26" cy="726" r="7" fill="#ffd166"/>
  <circle cx="974" cy="726" r="7" fill="#ffd166"/>

  <!-- CHARACTER BAR -->
  <rect x="40" y="40" width="320" height="100" rx="8" fill="#1a1108" stroke="#c99a4b" stroke-width="2"/>
  <rect x="52" y="57" width="60" height="60" rx="6" fill="#0d0a06" stroke="#ffd166" stroke-width="2"/>
  <text x="82" y="95" font-size="20" fill="#ffd166" text-anchor="middle" font-family="'Courier New', Consolas, monospace" font-weight="bold">ME</text>

  <text x="124" y="65" font-size="15" fill="#e8d9b0" font-family="'Courier New', Consolas, monospace" font-weight="bold" letter-spacing="1">MUHAMMED EREN</text>

  <rect x="124" y="78" width="155" height="17" rx="3" fill="#0d0a06" stroke="#ffffff" stroke-width="1"/>
  <rect x="126.5" y="80.5" width="150" height="13" rx="2" fill="#3fdb5c"/>
  <text x="201.5" y="90.5" font-size="9.5" fill="#0a2e12" font-weight="bold" font-family="'Courier New', Consolas, monospace" text-anchor="middle">HP 100/100</text>

  <text x="124" y="118" font-size="12" fill="#ffd166" font-family="'Courier New', Consolas, monospace" font-weight="bold" letter-spacing="1">LEVEL 19</text>

  <!-- PORTRAIT FRAME -->
  <rect x="40" y="160" width="300" height="330" rx="10" fill="#1a1108" stroke="#ffd166" stroke-width="3"/>
  <rect x="52" y="172" width="276" height="306" rx="6" fill="#0a0704" stroke="#c99a4b" stroke-width="2"/>

  <g>
    <text font-size="8.93" fill="#5eead4" xml:space="preserve" style="white-space:pre"><tspan x="56.0" y="172.0">                                                  </tspan>
      <tspan x="56.0" y="181.7">                                                  </tspan>
      <tspan x="56.0" y="191.4">                                                  </tspan>
      <tspan x="56.0" y="201.1">                      --                          </tspan>
      <tspan x="56.0" y="210.9">                  ==+++=++=--                     </tspan>
      <tspan x="56.0" y="220.6">                =+******#******=                  </tspan>
      <tspan x="56.0" y="230.3">               =**############***+                </tspan>
      <tspan x="56.0" y="240.0">               +*#############****+               </tspan>
      <tspan x="56.0" y="249.7">              -**#****+++**#######*-              </tspan>
      <tspan x="56.0" y="259.4">              =***=+**++=**##*#####*-             </tspan>
      <tspan x="56.0" y="269.1">              -+#==+**+--+******###*              </tspan>
      <tspan x="56.0" y="278.9">               =* -===  -=++++++*##=              </tspan>
      <tspan x="56.0" y="288.6">                =    -+=*+=----=+##               </tspan>
      <tspan x="56.0" y="298.3">                -   ---=++=---==+*=               </tspan>
      <tspan x="56.0" y="308.0">                   -===+++++====++=               </tspan>
      <tspan x="56.0" y="317.7">                  ---=+++++==++===                </tspan>
      <tspan x="56.0" y="327.4">                  -----====++++=-                 </tspan>
      <tspan x="56.0" y="337.1">                  :---===++++++-                  </tspan>
      <tspan x="56.0" y="346.9">                   -=++++**+===:                  </tspan>
      <tspan x="56.0" y="356.6">                   --=  +**++=-                   </tspan>
      <tspan x="56.0" y="366.3">                     --=====---                   </tspan>
      <tspan x="56.0" y="376.0">                      ----- ---:            -:   :</tspan>
      <tspan x="56.0" y="385.7">             =+*#*=         ===+#*     :- :- -====</tspan>
      <tspan x="56.0" y="395.4">    ===  -+####%%###*+   +###########+ --:=+++-==*</tspan>
      <tspan x="56.0" y="405.1">--=+++**#%#########%%%%%#%%%%########%#****#######</tspan>
      <tspan x="56.0" y="414.9">****##############################################</tspan>
      <tspan x="56.0" y="424.6">***###########################################%###</tspan>
      <tspan x="56.0" y="434.3">##############################################%%%#</tspan></text>
  </g>

  <text x="190" y="462" font-size="11" fill="#ffd166" font-family="'Courier New', Consolas, monospace" font-weight="bold" text-anchor="middle" letter-spacing="1">EREN THE DEVELOPER</text>

  <text x="60" y="516" font-size="9" fill="#c99a4b" font-family="'Courier New', Consolas, monospace" letter-spacing="1">LOGIC</text>
  <rect x="60" y="522" width="220" height="10" rx="2" fill="#0d0a06" stroke="#8a5a2b" stroke-width="1"/>
  <rect x="62" y="524" width="216" height="6" rx="1" fill="#22d3ee"/>
  <text x="60" y="540" font-size="9" fill="#c99a4b" font-family="'Courier New', Consolas, monospace" letter-spacing="1">CREATIVITY</text>
  <rect x="60" y="546" width="220" height="10" rx="2" fill="#0d0a06" stroke="#8a5a2b" stroke-width="1"/>
  <rect x="62" y="548" width="216" height="6" rx="1" fill="#c084fc"/>
  <text x="60" y="564" font-size="9" fill="#c99a4b" font-family="'Courier New', Consolas, monospace" letter-spacing="1">CAFFEINE</text>
  <rect x="60" y="570" width="220" height="10" rx="2" fill="#0d0a06" stroke="#8a5a2b" stroke-width="1"/>
  <rect x="62" y="572" width="216" height="6" rx="1" fill="#fbbf24"/>

  <!-- PARCHMENT BOX -->
  <rect x="380" y="40" width="580" height="300" rx="10" fill="#e8d9b0" stroke="#8a5a2b" stroke-width="3"/>
  <rect x="392" y="52" width="556" height="276" rx="6" fill="#ddc99a" stroke="#8a5a2b" stroke-width="1"/>

  <text x="410" y="76" font-size="15" fill="#3d2814" font-weight="bold" font-family="'Courier New', Consolas, monospace" letter-spacing="1">CHARACTER FILE</text>
  <line x1="410" y1="84" x2="700" y2="84" stroke="#8a5a2b" stroke-width="1"/>

  <text x="410" y="110" font-size="12" fill="#3d2814" font-weight="bold" font-family="'Courier New', Consolas, monospace">CLASS:</text>
  <text x="410" y="130" font-size="12" fill="#3d2814" font-family="'Courier New', Consolas, monospace">Software Engineering Student</text>
  <text x="410" y="148" font-size="12" fill="#3d2814" font-family="'Courier New', Consolas, monospace">Game Developer</text>

  <text x="410" y="178" font-size="12" fill="#3d2814" font-weight="bold" font-family="'Courier New', Consolas, monospace">FOCUS:</text>
  <text x="410" y="198" font-size="12" fill="#3d2814" font-family="'Courier New', Consolas, monospace">Unity · Full-Stack</text>

  <text x="410" y="228" font-size="12" fill="#3d2814" font-weight="bold" font-family="'Courier New', Consolas, monospace">CONTACT:</text>
  <text x="410" y="248" font-size="12" fill="#3d2814" font-family="'Courier New', Consolas, monospace">merenyprkc@gmail.com</text>

  <text x="410" y="278" font-size="12" fill="#3d2814" font-weight="bold" font-family="'Courier New', Consolas, monospace">LINKEDIN:</text>
  <text x="410" y="298" font-size="12" fill="#3d2814" font-family="'Courier New', Consolas, monospace">linkedin.com/in/merenyprkc</text>

  <!-- EQUIPMENT GRID -->
  <rect x="380" y="364" width="580" height="120" rx="10" fill="#1a1108" stroke="#c99a4b" stroke-width="2"/>
  <text x="670" y="380" font-size="13" fill="#ffd166" text-anchor="middle" font-family="'Courier New', Consolas, monospace" font-weight="bold" letter-spacing="1">TOOLS &amp; ENGINES</text>
  <g>
    <rect x="400" y="386" width="120" height="78" rx="6" fill="#1a1108" stroke="#8a5a2b" stroke-width="2"/>
    <rect x="406" y="392" width="108" height="66" rx="4" fill="#2b1d10" stroke="#c99a4b" stroke-width="1"/>
    <g transform="translate(460,418) scale(1.0)" stroke="#cbd5e1" stroke-width="3" fill="none" stroke-linecap="round">
      <line x1="-10" y1="10" x2="10" y2="-10"/>
      <line x1="4" y1="-16" x2="16" y2="-4"/>
      <line x1="-14" y1="6" x2="-6" y2="14"/>
      <rect x="-16" y="4" width="10" height="10" fill="#8a5a2b" stroke="none" transform="rotate(45 -11 9)"/>
    </g>
    <text x="460" y="453" font-size="10" fill="#e8d9b0" text-anchor="middle" font-family="'Courier New', Consolas, monospace" font-weight="bold" letter-spacing="0.3">UNITY</text>
  </g>
    <g>
    <rect x="532" y="386" width="120" height="78" rx="6" fill="#1a1108" stroke="#8a5a2b" stroke-width="2"/>
    <rect x="538" y="392" width="108" height="66" rx="4" fill="#2b1d10" stroke="#c99a4b" stroke-width="1"/>
    <g transform="translate(592,418) scale(1.0)" fill="none" stroke="#e07a3f" stroke-width="1.8" stroke-linejoin="round">
      <polygon points="0,-15 13,-8 13,8 0,15 -13,8 -13,-8" fill="#e07a3f" opacity="0.25"/>
      <polygon points="0,-15 13,-8 13,8 0,15 -13,8 -13,-8"/>
      <line x1="0" y1="-15" x2="0" y2="1"/>
      <line x1="13" y1="-8" x2="0" y2="1"/>
      <line x1="-13" y1="-8" x2="0" y2="1"/>
      <line x1="0" y1="1" x2="0" y2="15"/>
    </g>
    <text x="592" y="453" font-size="10" fill="#e8d9b0" text-anchor="middle" font-family="'Courier New', Consolas, monospace" font-weight="bold" letter-spacing="0.3">BLENDER</text>
  </g>
    <g>
    <rect x="664" y="386" width="120" height="78" rx="6" fill="#1a1108" stroke="#8a5a2b" stroke-width="2"/>
    <rect x="670" y="392" width="108" height="66" rx="4" fill="#2b1d10" stroke="#c99a4b" stroke-width="1"/>
    <g transform="translate(724,418) scale(1.0)">
      <path d="M-10,10 Q-14,16 -8,18 Q-2,20 0,12 Z" fill="#a3a3a3" stroke="#525252" stroke-width="1"/>
      <line x1="0" y1="12" x2="14" y2="-10" stroke="#78350f" stroke-width="5" stroke-linecap="round"/>
      <line x1="10" y1="-6" x2="18" y2="-16" stroke="#ec4899" stroke-width="5" stroke-linecap="round"/>
    </g>
    <text x="724" y="453" font-size="10" fill="#e8d9b0" text-anchor="middle" font-family="'Courier New', Consolas, monospace" font-weight="bold" letter-spacing="0.3">PHOTOSHOP</text>
  </g>
    <g>
    <rect x="796" y="386" width="120" height="78" rx="6" fill="#1a1108" stroke="#8a5a2b" stroke-width="2"/>
    <rect x="802" y="392" width="108" height="66" rx="4" fill="#2b1d10" stroke="#c99a4b" stroke-width="1"/>
    <g transform="translate(856,418) scale(1.0)" stroke="#f97316" stroke-width="2.5" fill="none">
      <circle cx="-9" cy="-11" r="4" fill="#f97316" stroke="none"/>
      <circle cx="-9" cy="11" r="4" fill="#f97316" stroke="none"/>
      <circle cx="9" cy="-2" r="4" fill="#f97316" stroke="none"/>
      <path d="M-9,-7 L-9,7"/>
      <path d="M-9,2 Q-9,-2 -2,-2 L5,-2"/>
    </g>
    <text x="856" y="453" font-size="10" fill="#e8d9b0" text-anchor="middle" font-family="'Courier New', Consolas, monospace" font-weight="bold" letter-spacing="0.3">GIT</text>
  </g>

  <!-- ITEMS GRID -->
  <rect x="380" y="504" width="580" height="118" rx="10" fill="#1a1108" stroke="#c99a4b" stroke-width="2"/>
  <text x="670" y="520" font-size="13" fill="#ffd166" text-anchor="middle" font-family="'Courier New', Consolas, monospace" font-weight="bold" letter-spacing="1">LANGUAGES</text>
  <g>
    <rect x="400" y="526" width="72" height="78" rx="6" fill="#1a1108" stroke="#8a5a2b" stroke-width="2"/>
    <rect x="405" y="531" width="62" height="54" rx="4" fill="#2b1d10" stroke="#c99a4b" stroke-width="1"/>
    <g transform="translate(436,550) scale(0.85)">
      <path d="M0,-16 L14,-9 L14,4 Q14,16 0,20 Q-14,16 -14,4 L-14,-9 Z" fill="#3b82f6" stroke="#1e3a8a" stroke-width="2"/>
      <path d="M0,-10 L8,-6 L8,3 Q8,10 0,13 Q-8,10 -8,3 L-8,-6 Z" fill="#93c5fd"/>
    </g>
    <text x="436" y="596" font-size="9.5" fill="#e8d9b0" text-anchor="middle" font-family="'Courier New', Consolas, monospace" font-weight="bold">C#</text>
  </g>
    <g>
    <rect x="482" y="526" width="72" height="78" rx="6" fill="#1a1108" stroke="#8a5a2b" stroke-width="2"/>
    <rect x="487" y="531" width="62" height="54" rx="4" fill="#2b1d10" stroke="#c99a4b" stroke-width="1"/>
    <g transform="translate(518,550) scale(0.85)">
      <path d="M-10,-8 L10,-8 L8,12 Q8,16 0,16 Q-8,16 -8,12 Z" fill="#78350f" stroke="#3d2814" stroke-width="1.5"/>
      <path d="M9,-4 Q18,-4 18,3 Q18,9 9,7" fill="none" stroke="#78350f" stroke-width="2.5"/>
      <line x1="-9" y1="-8" x2="9" y2="-8" stroke="#facc15" stroke-width="2"/>
    </g>
    <text x="518" y="596" font-size="9.5" fill="#e8d9b0" text-anchor="middle" font-family="'Courier New', Consolas, monospace" font-weight="bold">JAVA</text>
  </g>
    <g>
    <rect x="564" y="526" width="72" height="78" rx="6" fill="#1a1108" stroke="#8a5a2b" stroke-width="2"/>
    <rect x="569" y="531" width="62" height="54" rx="4" fill="#2b1d10" stroke="#c99a4b" stroke-width="1"/>
    <g transform="translate(600,550) scale(0.85)">
      <rect x="-17" y="-14" width="34" height="28" rx="4" fill="#f7df1e"/>
      <text x="0" y="5" font-size="15" fill="#1a1108" text-anchor="middle" font-family="'Courier New', Consolas, monospace" font-weight="bold">JS</text>
    </g>
    <text x="600" y="596" font-size="9.5" fill="#e8d9b0" text-anchor="middle" font-family="'Courier New', Consolas, monospace" font-weight="bold">JAVASCRIPT</text>
  </g>
    <g>
    <rect x="646" y="526" width="72" height="78" rx="6" fill="#1a1108" stroke="#8a5a2b" stroke-width="2"/>
    <rect x="651" y="531" width="62" height="54" rx="4" fill="#2b1d10" stroke="#c99a4b" stroke-width="1"/>
    <g transform="translate(682,550) scale(0.85)">
      <circle cx="-6" cy="-7" r="9" fill="#3b82f6"/>
      <circle cx="6" cy="7" r="9" fill="#facc15"/>
      <circle cx="-9" cy="-10" r="1.6" fill="#0a0a0a"/>
      <circle cx="9" cy="10" r="1.6" fill="#0a0a0a"/>
    </g>
    <text x="682" y="596" font-size="9.5" fill="#e8d9b0" text-anchor="middle" font-family="'Courier New', Consolas, monospace" font-weight="bold">PYTHON</text>
  </g>
    <g>
    <rect x="728" y="526" width="72" height="78" rx="6" fill="#1a1108" stroke="#8a5a2b" stroke-width="2"/>
    <rect x="733" y="531" width="62" height="54" rx="4" fill="#2b1d10" stroke="#c99a4b" stroke-width="1"/>
    <g transform="translate(764,550) scale(0.85)" stroke="#38bdf8" stroke-width="1.5" fill="none">
      <circle r="14" fill="#0c4a6e"/>
      <ellipse cx="0" cy="0" rx="14" ry="6"/>
      <ellipse cx="0" cy="0" rx="6" ry="14"/>
      <line x1="-14" y1="0" x2="14" y2="0"/>
    </g>
    <text x="764" y="596" font-size="9.5" fill="#e8d9b0" text-anchor="middle" font-family="'Courier New', Consolas, monospace" font-weight="bold">HTML/CSS</text>
  </g>

  <!-- QUEST LOG -->
  <rect x="40" y="642" width="920" height="60" rx="8" fill="#1a1108" stroke="#ffd166" stroke-width="2"/>
  <text x="60" y="678" font-size="13" fill="#ffd166" font-family="'Courier New', Consolas, monospace" font-weight="bold" letter-spacing="1">QUEST LOG</text>
  <text x="200" y="678" font-size="12" fill="#e8d9b0" font-family="'Courier New', Consolas, monospace">→ Soul Claim: Survivors <tspan fill="#8a5a2b">(Unity, active development)</tspan></text>

</svg>